<svg xmlns="http://www.w3.org/2000/svg" xmlns:xlink="http://www.w3.org/1999/xlink" version="1.1" class="marks" width="518" height="364" viewBox="0 0 518 364"><rect width="518" height="364" fill="white"/><g fill="none" stroke-miterlimit="10" transform="translate(42,27)"><g class="mark-group role-frame root" role="graphics-object" aria-roledescription="group mark container"><g transform="translate(0,0)"><path class="background" aria-hidden="true" d="M0.5,0.5h400v300h-400Z" stroke="#ddd"/><g><g class="mark-group role-axis" aria-hidden="true"><g transform="translate(0.5,300.5)"><path class="background" aria-hidden="true" d="M0,0h0v0h0Z" pointer-events="none"/><g><g class="mark-rule role-axis-grid" pointer-events="none"><line transform="translate(82,-300)" x2="0" y2="300" stroke="#ddd" stroke-width="1" opacity="1"/><line transform="translate(156,-300)" x2="0" y2="300" stroke="#ddd" stroke-width="1" opacity="1"/><line transform="translate(238,-300)" x2="0" y2="300" stroke="#ddd" stroke-width="1" opacity="1"/><line transform="translate(318,-300)" x2="0" y2="300" stroke="#ddd" stroke-width="1" opacity="1"/><line transform="translate(400,-300)" x2="0" y2="300" stroke="#ddd" stroke-width="1" opacity="1"/></g></g><path class="foreground" aria-hidden="true" d="" pointer-events="none" display="none"/></g></g><g class="mark-group role-axis" aria-hidden="true"><g transform="translate(0.5,0.5)"><path class="background" aria-hidden="true" d="M0,0h0v0h0Z" pointer-events="none"/><g><g class="mark-rule role-axis-grid" pointer-events="none"><line transform="translate(0,300)" x2="400" y2="0" stroke="#ddd" stroke-width="1" opacity="1"/><line transform="translate(0,270)" x2="400" y2="0" stroke="#ddd" stroke-width="1" opacity="1"/><line transform="translate(0,240)" x2="400" y2="0" stroke="#ddd" stroke-width="1" opacity="1"/><line transform="translate(0,210)" x2="400" y2="0" stroke="#ddd" stroke-width="1" opacity="1"/><line transform="translate(0,180)" x2="400" y2="0" stroke="#ddd" stroke-width="1" opacity="1"/><line transform="translate(0,150)" x2="400" y2="0" stroke="#ddd" stroke-width="1" opacity="1"/><line transform="translate(0,120)" x2="400" y2="0" stroke="#ddd" stroke-width="1" opacity="1"/><line transform="translate(0,90)" x2="400" y2="0" stroke="#ddd" stroke-width="1" opacity="1"/><line transform="translate(0,60)" x2="400" y2="0" stroke="#ddd" stroke-width="1" opacity="1"/><line transform="translate(0,30)" x2="400" y2="0" stroke="#ddd" stroke-width="1" opacity="1"/><line transform="translate(0,0)" x2="400" y2="0" stroke="#ddd" stroke-width="1" opacity="1"/></g></g><path class="foreground" aria-hidden="true" d="" pointer-events="none" display="none"/></g></g><g class="mark-group role-axis" role="graphics-symbol" aria-roledescription="axis" aria-label="X-axis titled 'date' for a time scale with values from Friday, 01 January 2021, 1:00:00 AM to Tuesday, 01 June 2021, 2:00:00 AM"><g transform="translate(0.5,300.5)"><path class="background" aria-hidden="true" d="M0,0h0v0h0Z" pointer-events="none"/><g><g class="mark-rule role-axis-tick" pointer-events="none"><line transform="translate(82,0)" x2="0" y2="5" stroke="#888" stroke-width="1" opacity="1"/><line transform="translate(156,0)" x2="0" y2="5" stroke="#888" stroke-width="1" opacity="1"/><line transform="translate(238,0)" x2="0" y2="5" stroke="#888" stroke-width="1" opacity="1"/><line transform="translate(318,0)" x2="0" y2="5" stroke="#888" stroke-width="1" opacity="1"/><line transform="translate(400,0)" x2="0" y2="5" stroke="#888" stroke-width="1" opacity="1"/></g><g class="mark-text role-axis-label" pointer-events="none"><text text-anchor="middle" transform="translate(82.00883002207505,15)" font-family="sans-serif" font-size="10px" fill="#000" opacity="1">February</text><text text-anchor="middle" transform="translate(156.18101545253865,15)" font-family="sans-serif" font-size="10px" fill="#000" opacity="1">March</text><text text-anchor="middle" transform="translate(238.1898454746137,15)" font-family="sans-serif" font-size="10px" fill="#000" opacity="1">April</text><text text-anchor="middle" transform="translate(317.66004415011037,15)" font-family="sans-serif" font-size="10px" fill="#000" opacity="1">May</text><text text-anchor="end" transform="translate(399.77924944812366,15)" font-family="sans-serif" font-size="10px" fill="#000" opacity="1">June</text></g><g class="mark-rule role-axis-domain" pointer-events="none"><line transform="translate(0,0)" x2="400" y2="0" stroke="#888" stroke-width="1" opacity="1"/></g><g class="mark-text role-axis-title" pointer-events="none"><text text-anchor="middle" transform="translate(200,30)" font-family="sans-serif" font-size="11px" font-weight="bold" fill="#000" opacity="1">date</text></g></g><path class="foreground" aria-hidden="true" d="" pointer-events="none" display="none"/></g></g><g class="mark-group role-axis" role="graphics-symbol" aria-roledescription="axis" aria-label="Y-axis titled 'count' for a linear scale with values from 0.0 to 1.0"><g transform="translate(0.5,0.5)"><path class="background" aria-hidden="true" d="M0,0h0v0h0Z" pointer-events="none"/><g><g class="mark-rule role-axis-tick" pointer-events="none"><line transform="translate(0,300)" x2="-5" y2="0" stroke="#888" stroke-width="1" opacity="1"/><line transform="translate(0,270)" x2="-5" y2="0" stroke="#888" stroke-width="1" opacity="1"/><line transform="translate(0,240)" x2="-5" y2="0" stroke="#888" stroke-width="1" opacity="1"/><line transform="translate(0,210)" x2="-5" y2="0" stroke="#888" stroke-width="1" opacity="1"/><line transform="translate(0,180)" x2="-5" y2="0" stroke="#888" stroke-width="1" opacity="1"/><line transform="translate(0,150)" x2="-5" y2="0" stroke="#888" stroke-width="1" opacity="1"/><line transform="translate(0,120)" x2="-5" y2="0" stroke="#888" stroke-width="1" opacity="1"/><line transform="translate(0,90)" x2="-5" y2="0" stroke="#888" stroke-width="1" opacity="1"/><line transform="translate(0,60)" x2="-5" y2="0" stroke="#888" stroke-width="1" opacity="1"/><line transform="translate(0,30)" x2="-5" y2="0" stroke="#888" stroke-width="1" opacity="1"/><line transform="translate(0,0)" x2="-5" y2="0" stroke="#888" stroke-width="1" opacity="1"/></g><g class="mark-text role-axis-label" pointer-events="none"><text text-anchor="end" transform="translate(-7,303)" font-family="sans-serif" font-size="10px" fill="#000" opacity="1">0.0</text><text text-anchor="end" transform="translate(-7,273)" font-family="sans-serif" font-size="10px" fill="#000" opacity="1">0.1</text><text text-anchor="end" transform="translate(-7,243)" font-family="sans-serif" font-size="10px" fill="#000" opacity="1">0.2</text><text text-anchor="end" transform="translate(-7,213)" font-family="sans-serif" font-size="10px" fill="#000" opacity="1">0.3</text><text text-anchor="end" transform="translate(-7,183)" font-family="sans-serif" font-size="10px" fill="#000" opacity="1">0.4</text><text text-anchor="end" transform="translate(-7,153)" font-family="sans-serif" font-size="10px" fill="#000" opacity="1">0.5</text><text text-anchor="end" transform="translate(-7,123)" font-family="sans-serif" font-size="10px" fill="#000" opacity="1">0.6</text><text text-anchor="end" transform="translate(-7,93.00000000000001)" font-family="sans-serif" font-size="10px" fill="#000" opacity="1">0.7</text><text text-anchor="end" transform="translate(-7,62.999999999999986)" font-family="sans-serif" font-size="10px" fill="#000" opacity="1">0.8</text><text text-anchor="end" transform="translate(-7,32.99999999999999)" font-family="sans-serif" font-size="10px" fill="#000" opacity="1">0.9</text><text text-anchor="end" transform="translate(-7,3)" font-family="sans-serif" font-size="10px" fill="#000" opacity="1">1.0</text></g><g class="mark-rule role-axis-domain" pointer-events="none"><line transform="translate(0,300)" x2="0" y2="-300" stroke="#888" stroke-width="1" opacity="1"/></g><g class="mark-text role-axis-title" pointer-events="none"><text text-anchor="middle" transform="translate(-26,150) rotate(-90) translate(0,-2)" font-family="sans-serif" font-size="11px" font-weight="bold" fill="#000" opacity="1">count</text></g></g><path class="foreground" aria-hidden="true" d="" pointer-events="none" display="none"/></g></g><g class="mark-group role-scope pathgroup" role="graphics-object" aria-roledescription="group mark container"><g transform="translate(0,0)"><path class="background" aria-hidden="true" d="M0,0h400v300h-400Z"/><g><g class="mark-area role-mark marks" role="graphics-object" aria-roledescription="area mark container"><path aria-label="lineage: B.1.1.7; order: 0; date: Jan 01, 2021; count: 1" role="graphics-symbol" aria-roledescription="area mark" d="M0,0L37.086092715231786,100.00000000000001L82.11920529801324,300L119.20529801324504,0L156.2913907284768,31.034482758620683L193.37748344370863,15.789473684210542L238.41059602649008,32.14285714285716L275.49668874172187,137.5L317.88079470198676,0L354.9668874172185,25.00000000000001L400,0L400,300L354.9668874172185,300L317.88079470198676,300L275.49668874172187,300L238.41059602649008,300L193.37748344370863,300L156.2913907284768,300L119.20529801324504,300L82.11920529801324,300L37.086092715231786,300L0,300Z" fill="#f58518"/></g></g><path class="foreground" aria-hidden="true" d="" display="none"/></g><g transform="translate(0,0)"><path class="background" aria-hidden="true" d="M0,0h400v300h-400Z"/><g><g class="mark-area role-mark marks" role="graphics-object" aria-roledescription="area mark container"><path aria-label="lineage: B.1.177; order: 1; date: Jan 01, 2021; count: 0" role="graphics-symbol" aria-roledescription="area mark" d="M0,0L37.086092715231786,0L82.11920529801324,0L119.20529801324504,0L156.2913907284768,10.344827586206918L193.37748344370863,15.789473684210542L238.41059602649008,32.14285714285716L275.49668874172187,137.5L317.88079470198676,0L354.9668874172185,25.00000000000001L400,0L400,0L354.9668874172185,25.00000000000001L317.88079470198676,0L275.49668874172187,137.5L238.41059602649008,32.14285714285716L193.37748344370863,15.789473684210542L156.2913907284768,31.034482758620683L119.20529801324504,0L82.11920529801324,300L37.086092715231786,100.00000000000001L0,0Z" fill="#72b7b2"/></g></g><path class="foreground" aria-hidden="true" d="" display="none"/></g><g transform="translate(0,0)"><path class="background" aria-hidden="true" d="M0,0h400v300h-400Z"/><g><g class="mark-area role-mark marks" role="graphics-object" aria-roledescription="area mark container"><path aria-label="lineage: P.1; order: 2; date: Jan 01, 2021; count: 0" role="graphics-symbol" aria-roledescription="area mark" d="M0,0L37.086092715231786,0L82.11920529801324,0L119.20529801324504,0L156.2913907284768,10.344827586206918L193.37748344370863,15.789473684210542L238.41059602649008,0L275.49668874172187,12.500000000000021L317.88079470198676,0L354.9668874172185,0L400,0L400,0L354.9668874172185,25.00000000000001L317.88079470198676,0L275.49668874172187,137.5L238.41059602649008,32.14285714285716L193.37748344370863,15.789473684210542L156.2913907284768,10.344827586206918L119.20529801324504,0L82.11920529801324,0L37.086092715231786,0L0,0Z" fill="#9d755d"/></g></g><path class="foreground" aria-hidden="true" d="" display="none"/></g><g transform="translate(0,0)"><path class="background" aria-hidden="true" d="M0,0h400v300h-400Z"/><g><g class="mark-area role-mark marks" role="graphics-object" aria-roledescription="area mark container"><path aria-label="lineage: B.1; order: 3; date: Jan 01, 2021; count: 0" role="graphics-symbol" aria-roledescription="area mark" d="M0,0L37.086092715231786,0L82.11920529801324,0L119.20529801324504,0L156.2913907284768,10.344827586206918L193.37748344370863,15.789473684210542L238.41059602649008,0L275.49668874172187,12.500000000000021L317.88079470198676,0L354.9668874172185,0L400,0L400,0L354.9668874172185,0L317.88079470198676,0L275.49668874172187,12.500000000000021L238.41059602649008,0L193.37748344370863,15.789473684210542L156.2913907284768,10.344827586206918L119.20529801324504,0L82.11920529801324,0L37.086092715231786,0L0,0Z" fill="#4c78a8"/></g></g><path class="foreground" aria-hidden="true" d="" display="none"/></g><g transform="translate(0,0)"><path class="background" aria-hidden="true" d="M0,0h400v300h-400Z"/><g><g class="mark-area role-mark marks" role="graphics-object" aria-roledescription="area mark container"><path aria-label="lineage: B.1.221; order: 4; date: Jan 01, 2021; count: 0" role="graphics-symbol" aria-roledescription="area mark" d="M0,0L37.086092715231786,0L82.11920529801324,0L119.20529801324504,0L156.2913907284768,10.344827586206918L193.37748344370863,15.789473684210542L238.41059602649008,0L275.49668874172187,12.500000000000021L317.88079470198676,0L354.9668874172185,0L400,0L400,0L354.9668874172185,0L317.88079470198676,0L275.49668874172187,12.500000000000021L238.41059602649008,0L193.37748344370863,15.789473684210542L156.2913907284768,10.344827586206918L119.20529801324504,0L82.11920529801324,0L37.086092715231786,0L0,0Z" fill="#54a24b"/></g></g><path class="foreground" aria-hidden="true" d="" display="none"/></g><g transform="translate(0,0)"><path class="background" aria-hidden="true" d="M0,0h400v300h-400Z"/><g><g class="mark-area role-mark marks" role="graphics-object" aria-roledescription="area mark container"><path aria-label="lineage: B.1.160; order: 5; date: Jan 01, 2021; count: 0" role="graphics-symbol" aria-roledescription="area mark" d="M0,0L37.086092715231786,0L82.11920529801324,0L119.20529801324504,0L156.2913907284768,0L193.37748344370863,15.789473684210542L238.41059602649008,0L275.49668874172187,12.500000000000021L317.88079470198676,0L354.9668874172185,0L400,0L400,0L354.9668874172185,0L317.88079470198676,0L275.49668874172187,12.500000000000021L238.41059602649008,0L193.37748344370863,15.789473684210542L156.2913907284768,10.344827586206918L119.20529801324504,0L82.11920529801324,0L37.086092715231786,0L0,0Z" fill="#e45756"/></g></g><path class="foreground" aria-hidden="true" d="" display="none"/></g><g transform="translate(0,0)"><path class="background" aria-hidden="true" d="M0,0h400v300h-400Z"/><g><g class="mark-area role-mark marks" role="graphics-object" aria-roledescription="area mark container"><path aria-label="lineage: B.1.621; order: 6; date: Jan 01, 2021; count: 0" role="graphics-symbol" aria-roledescription="area mark" d="M0,0L37.086092715231786,0L82.11920529801324,0L119.20529801324504,0L156.2913907284768,0L193.37748344370863,15.789473684210542L238.41059602649008,0L275.49668874172187,12.500000000000021L317.88079470198676,0L354.9668874172185,0L400,0L400,0L354.9668874172185,0L317.88079470198676,0L275.49668874172187,12.500000000000021L238.41059602649008,0L193.37748344370863,15.789473684210542L156.2913907284768,0L119.20529801324504,0L82.11920529801324,0L37.086092715231786,0L0,0Z" fill="#ff9da6"/></g></g><path class="foreground" aria-hidden="true" d="" display="none"/></g><g transform="translate(0,0)"><path class="background" aria-hidden="true" d="M0,0h400v300h-400Z"/><g><g class="mark-area role-mark marks" role="graphics-object" aria-roledescription="area mark container"><path aria-label="lineage: B.1.258; order: 7; date: Jan 01, 2021; count: 0" role="graphics-symbol" aria-roledescription="area mark" d="M0,0L37.086092715231786,0L82.11920529801324,0L119.20529801324504,0L156.2913907284768,0L193.37748344370863,7.894736842105288L238.41059602649008,0L275.49668874172187,12.500000000000021L317.88079470198676,0L354.9668874172185,0L400,0L400,0L354.9668874172185,0L317.88079470198676,0L275.49668874172187,12.500000000000021L238.41059602649008,0L193.37748344370863,15.789473684210542L156.2913907284768,0L119.20529801324504,0L82.11920529801324,0L37.086092715231786,0L0,0Z" fill="#eeca3b"/></g></g><path class="foreground" aria-hidden="true" d="" display="none"/></g><g transform="translate(0,0)"><path class="background" aria-hidden="true" d="M0,0h400v300h-400Z"/><g><g class="mark-area role-mark marks" role="graphics-object" aria-roledescription="area mark container"><path aria-label="lineage: B.1.351; order: 8; date: Jan 01, 2021; count: 0" role="graphics-symbol" aria-roledescription="area mark" d="M0,0L37.086092715231786,0L82.11920529801324,0L119.20529801324504,0L156.2913907284768,0L193.37748344370863,7.894736842105288L238.41059602649008,0L275.49668874172187,12.500000000000021L317.88079470198676,0L354.9668874172185,0L400,0L400,0L354.9668874172185,0L317.88079470198676,0L275.49668874172187,12.500000000000021L238.41059602649008,0L193.37748344370863,7.894736842105288L156.2913907284768,0L119.20529801324504,0L82.11920529801324,0L37.086092715231786,0L0,0Z" fill="#b279a2"/></g></g><path class="foreground" aria-hidden="true" d="" display="none"/></g><g transform="translate(0,0)"><path class="background" aria-hidden="true" d="M0,0h400v300h-400Z"/><g><g class="mark-area role-mark marks" role="graphics-object" aria-roledescription="area mark container"><path aria-label="lineage: others; order: 9; date: Jan 01, 2021; count: 0" role="graphics-symbol" aria-roledescription="area mark" d="M0,0L37.086092715231786,0L82.11920529801324,0L119.20529801324504,0L156.2913907284768,0L193.37748344370863,0L238.41059602649008,0L275.49668874172187,0L317.88079470198676,0L354.9668874172185,0L400,0L400,0L354.9668874172185,0L317.88079470198676,0L275.49668874172187,12.500000000000021L238.41059602649008,0L193.37748344370863,7.894736842105288L156.2913907284768,0L119.20529801324504,0L82.11920529801324,0L37.086092715231786,0L0,0Z" fill="#bab0ac"/></g></g><path class="foreground" aria-hidden="true" d="" display="none"/></g></g><g class="mark-group role-legend" role="graphics-symbol" aria-roledescription="legend" aria-label="Symbol legend titled 'lineage' for fill color with 10 values: B.1, B.1.1.7, B.1.160, B.1.177, B.1.221, ending with others"><g transform="translate(418,0)"><path class="background" aria-hidden="true" d="M0,0h53v144h-53Z" pointer-events="none"/><g><g class="mark-group role-legend-entry"><g transform="translate(0,16)"><path class="background" aria-hidden="true" d="M0,0h0v0h0Z" pointer-events="none"/><g><g class="mark-group role-scope" role="graphics-object" aria-roledescription="group mark container"><g transform="translate(0,0)"><path class="background" aria-hidden="true" d="M0,0h53v11h-53Z" pointer-events="none" opacity="1"/><g><g class="mark-symbol role-legend-symbol" pointer-events="none"><path transform="translate(6,6)" d="M5,0A5,5,0,1,1,-5,0A5,5,0,1,1,5,0" fill="#4c78a8" stroke-width="1.5" opacity="1"/></g><g class="mark-text role-legend-label" pointer-events="none"><text text-anchor="start" transform="translate(16,9)" font-family="sans-serif" font-size="10px" fill="#000" opacity="1">B.1</text></g></g><path class="foreground" aria-hidden="true" d="" pointer-events="none" display="none"/></g><g transform="translate(0,13)"><path class="background" aria-hidden="true" d="M0,0h53v11h-53Z" pointer-events="none" opacity="1"/><g><g class="mark-symbol role-legend-symbol" pointer-events="none"><path transform="translate(6,6)" d="M5,0A5,5,0,1,1,-5,0A5,5,0,1,1,5,0" fill="#f58518" stroke-width="1.5" opacity="1"/></g><g class="mark-text role-legend-label" pointer-events="none"><text text-anchor="start" transform="translate(16,9)" font-family="sans-serif" font-size="10px" fill="#000" opacity="1">B.1.1.7</text></g></g><path class="foreground" aria-hidden="true" d="" pointer-events="none" display="none"/></g><g transform="translate(0,26)"><path class="background" aria-hidden="true" d="M0,0h53v11h-53Z" pointer-events="none" opacity="1"/><g><g class="mark-symbol role-legend-symbol" pointer-events="none"><path transform="translate(6,6)" d="M5,0A5,5,0,1,1,-5,0A5,5,0,1,1,5,0" fill="#e45756" stroke-width="1.5" opacity="1"/></g><g class="mark-text role-legend-label" pointer-events="none"><text text-anchor="start" transform="translate(16,9)" font-family="sans-serif" font-size="10px" fill="#000" opacity="1">B.1.160</text></g></g><path class="foreground" aria-hidden="true" d="" pointer-events="none" display="none"/></g><g transform="translate(0,39)"><path class="background" aria-hidden="true" d="M0,0h53v11h-53Z" pointer-events="none" opacity="1"/><g><g class="mark-symbol role-legend-symbol" pointer-events="none"><path transform="translate(6,6)" d="M5,0A5,5,0,1,1,-5,0A5,5,0,1,1,5,0" fill="#72b7b2" stroke-width="1.5" opacity="1"/></g><g class="mark-text role-legend-label" pointer-events="none"><text text-anchor="start" transform="translate(16,9)" font-family="sans-serif" font-size="10px" fill="#000" opacity="1">B.1.177</text></g></g><path class="foreground" aria-hidden="true" d="" pointer-events="none" display="none"/></g><g transform="translate(0,52)"><path class="background" aria-hidden="true" d="M0,0h53v11h-53Z" pointer-events="none" opacity="1"/><g><g class="mark-symbol role-legend-symbol" pointer-events="none"><path transform="translate(6,6)" d="M5,0A5,5,0,1,1,-5,0A5,5,0,1,1,5,0" fill="#54a24b" stroke-width="1.5" opacity="1"/></g><g class="mark-text role-legend-label" pointer-events="none"><text text-anchor="start" transform="translate(16,9)" font-family="sans-serif" font-size="10px" fill="#000" opacity="1">B.1.221</text></g></g><path class="foreground" aria-hidden="true" d="" pointer-events="none" display="none"/></g><g transform="translate(0,65)"><path class="background" aria-hidden="true" d="M0,0h53v11h-53Z" pointer-events="none" opacity="1"/><g><g class="mark-symbol role-legend-symbol" pointer-events="none"><path transform="translate(6,6)" d="M5,0A5,5,0,1,1,-5,0A5,5,0,1,1,5,0" fill="#eeca3b" stroke-width="1.5" opacity="1"/></g><g class="mark-text role-legend-label" pointer-events="none"><text text-anchor="start" transform="translate(16,9)" font-family="sans-serif" font-size="10px" fill="#000" opacity="1">B.1.258</text></g></g><path class="foreground" aria-hidden="true" d="" pointer-events="none" display="none"/></g><g transform="translate(0,78)"><path class="background" aria-hidden="true" d="M0,0h53v11h-53Z" pointer-events="none" opacity="1"/><g><g class="mark-symbol role-legend-symbol" pointer-events="none"><path transform="translate(6,6)" d="M5,0A5,5,0,1,1,-5,0A5,5,0,1,1,5,0" fill="#b279a2" stroke-width="1.5" opacity="1"/></g><g class="mark-text role-legend-label" pointer-events="none"><text text-anchor="start" transform="translate(16,9)" font-family="sans-serif" font-size="10px" fill="#000" opacity="1">B.1.351</text></g></g><path class="foreground" aria-hidden="true" d="" pointer-events="none" display="none"/></g><g transform="translate(0,91)"><path class="background" aria-hidden="true" d="M0,0h53v11h-53Z" pointer-events="none" opacity="1"/><g><g class="mark-symbol role-legend-symbol" pointer-events="none"><path transform="translate(6,6)" d="M5,0A5,5,0,1,1,-5,0A5,5,0,1,1,5,0" fill="#ff9da6" stroke-width="1.5" opacity="1"/></g><g class="mark-text role-legend-label" pointer-events="none"><text text-anchor="start" transform="translate(16,9)" font-family="sans-serif" font-size="10px" fill="#000" opacity="1">B.1.621</text></g></g><path class="foreground" aria-hidden="true" d="" pointer-events="none" display="none"/></g><g transform="translate(0,104)"><path class="background" aria-hidden="true" d="M0,0h53v11h-53Z" pointer-events="none" opacity="1"/><g><g class="mark-symbol role-legend-symbol" pointer-events="none"><path transform="translate(6,6)" d="M5,0A5,5,0,1,1,-5,0A5,5,0,1,1,5,0" fill="#9d755d" stroke-width="1.5" opacity="1"/></g><g class="mark-text role-legend-label" pointer-events="none"><text text-anchor="start" transform="translate(16,9)" font-family="sans-serif" font-size="10px" fill="#000" opacity="1">P.1</text></g></g><path class="foreground" aria-hidden="true" d="" pointer-events="none" display="none"/></g><g transform="translate(0,117)"><path class="background" aria-hidden="true" d="M0,0h53v11h-53Z" pointer-events="none" opacity="1"/><g><g class="mark-symbol role-legend-symbol" pointer-events="none"><path transform="translate(6,6)" d="M5,0A5,5,0,1,1,-5,0A5,5,0,1,1,5,0" fill="#bab0ac" stroke-width="1.5" opacity="1"/></g><g class="mark-text role-legend-label" pointer-events="none"><text text-anchor="start" transform="translate(16,9)" font-family="sans-serif" font-size="10px" fill="#000" opacity="1">others</text></g></g><path class="foreground" aria-hidden="true" d="" pointer-events="none" display="none"/></g></g></g><path class="foreground" aria-hidden="true" d="" pointer-events="none" display="none"/></g></g><g class="mark-text role-legend-title" pointer-events="none"><text text-anchor="start" transform="translate(0,9)" font-family="sans-serif" font-size="11px" font-weight="bold" fill="#000" opacity="1">lineage</text></g></g><path class="foreground" aria-hidden="true" d="" pointer-events="none" display="none"/></g></g><g class="mark-group role-title"><g transform="translate(200,-22)"><path class="background" aria-hidden="true" d="M0,0h0v0h0Z" pointer-events="none"/><g><g class="mark-text role-title-text" role="graphics-symbol" aria-roledescription="title" aria-label="Title text 'Almería'" pointer-events="none"><text text-anchor="middle" transform="translate(0,10)" font-family="sans-serif" font-size="13px" font-weight="bold" fill="#000" opacity="1">Almería</text></g></g><path class="foreground" aria-hidden="true" d="" pointer-events="none" display="none"/></g></g></g><path class="foreground" aria-hidden="true" d="" display="none"/></g></g></g></svg>