<svg xmlns="http://www.w3.org/2000/svg" xmlns:xlink="http://www.w3.org/1999/xlink" version="1.1" class="marks" width="518" height="364" viewBox="0 0 518 364"><rect width="518" height="364" fill="white"/><g fill="none" stroke-miterlimit="10" transform="translate(42,27)"><g class="mark-group role-frame root" role="graphics-object" aria-roledescription="group mark container"><g transform="translate(0,0)"><path class="background" aria-hidden="true" d="M0.5,0.5h400v300h-400Z" stroke="#ddd"/><g><g class="mark-group role-axis" aria-hidden="true"><g transform="translate(0.5,300.5)"><path class="background" aria-hidden="true" d="M0,0h0v0h0Z" pointer-events="none"/><g><g class="mark-rule role-axis-grid" pointer-events="none"><line transform="translate(68,-300)" x2="0" y2="300" stroke="#ddd" stroke-width="1" opacity="1"/><line transform="translate(136,-300)" x2="0" y2="300" stroke="#ddd" stroke-width="1" opacity="1"/><line transform="translate(198,-300)" x2="0" y2="300" stroke="#ddd" stroke-width="1" opacity="1"/><line transform="translate(266,-300)" x2="0" y2="300" stroke="#ddd" stroke-width="1" opacity="1"/><line transform="translate(332,-300)" x2="0" y2="300" stroke="#ddd" stroke-width="1" opacity="1"/><line transform="translate(400,-300)" x2="0" y2="300" stroke="#ddd" stroke-width="1" opacity="1"/></g></g><path class="foreground" aria-hidden="true" d="" pointer-events="none" display="none"/></g></g><g class="mark-group role-axis" aria-hidden="true"><g transform="translate(0.5,0.5)"><path class="background" aria-hidden="true" d="M0,0h0v0h0Z" pointer-events="none"/><g><g class="mark-rule role-axis-grid" pointer-events="none"><line transform="translate(0,300)" x2="400" y2="0" stroke="#ddd" stroke-width="1" opacity="1"/><line transform="translate(0,270)" x2="400" y2="0" stroke="#ddd" stroke-width="1" opacity="1"/><line transform="translate(0,240)" x2="400" y2="0" stroke="#ddd" stroke-width="1" opacity="1"/><line transform="translate(0,210)" x2="400" y2="0" stroke="#ddd" stroke-width="1" opacity="1"/><line transform="translate(0,180)" x2="400" y2="0" stroke="#ddd" stroke-width="1" opacity="1"/><line transform="translate(0,150)" x2="400" y2="0" stroke="#ddd" stroke-width="1" opacity="1"/><line transform="translate(0,120)" x2="400" y2="0" stroke="#ddd" stroke-width="1" opacity="1"/><line transform="translate(0,90)" x2="400" y2="0" stroke="#ddd" stroke-width="1" opacity="1"/><line transform="translate(0,60)" x2="400" y2="0" stroke="#ddd" stroke-width="1" opacity="1"/><line transform="translate(0,30)" x2="400" y2="0" stroke="#ddd" stroke-width="1" opacity="1"/><line transform="translate(0,0)" x2="400" y2="0" stroke="#ddd" stroke-width="1" opacity="1"/></g></g><path class="foreground" aria-hidden="true" d="" pointer-events="none" display="none"/></g></g><g class="mark-group role-axis" role="graphics-symbol" aria-roledescription="axis" aria-label="X-axis titled 'date' for a time scale with values from Tuesday, 01 December 2020, 1:00:00 AM to Tuesday, 01 June 2021, 2:00:00 AM"><g transform="translate(0.5,300.5)"><path class="background" aria-hidden="true" d="M0,0h0v0h0Z" pointer-events="none"/><g><g class="mark-rule role-axis-tick" pointer-events="none"><line transform="translate(68,0)" x2="0" y2="5" stroke="#888" stroke-width="1" opacity="1"/><line transform="translate(136,0)" x2="0" y2="5" stroke="#888" stroke-width="1" opacity="1"/><line transform="translate(198,0)" x2="0" y2="5" stroke="#888" stroke-width="1" opacity="1"/><line transform="translate(266,0)" x2="0" y2="5" stroke="#888" stroke-width="1" opacity="1"/><line transform="translate(332,0)" x2="0" y2="5" stroke="#888" stroke-width="1" opacity="1"/><line transform="translate(400,0)" x2="0" y2="5" stroke="#888" stroke-width="1" opacity="1"/></g><g class="mark-text role-axis-label" pointer-events="none"><text text-anchor="middle" transform="translate(68.04029304029304,15)" font-family="sans-serif" font-size="10px" fill="#000" opacity="1">2021</text><text text-anchor="middle" transform="translate(136.17216117216117,15)" font-family="sans-serif" font-size="10px" fill="#000" opacity="1">February</text><text text-anchor="middle" transform="translate(197.71062271062272,15)" font-family="sans-serif" font-size="10px" fill="#000" opacity="1">March</text><text text-anchor="middle" transform="translate(265.75091575091574,15)" font-family="sans-serif" font-size="10px" fill="#000" opacity="1">April</text><text text-anchor="middle" transform="translate(331.6849816849817,15)" font-family="sans-serif" font-size="10px" fill="#000" opacity="1">May</text><text text-anchor="end" transform="translate(399.8168498168498,15)" font-family="sans-serif" font-size="10px" fill="#000" opacity="1">June</text></g><g class="mark-rule role-axis-domain" pointer-events="none"><line transform="translate(0,0)" x2="400" y2="0" stroke="#888" stroke-width="1" opacity="1"/></g><g class="mark-text role-axis-title" pointer-events="none"><text text-anchor="middle" transform="translate(200,30)" font-family="sans-serif" font-size="11px" font-weight="bold" fill="#000" opacity="1">date</text></g></g><path class="foreground" aria-hidden="true" d="" pointer-events="none" display="none"/></g></g><g class="mark-group role-axis" role="graphics-symbol" aria-roledescription="axis" aria-label="Y-axis titled 'count' for a linear scale with values from 0.0 to 1.0"><g transform="translate(0.5,0.5)"><path class="background" aria-hidden="true" d="M0,0h0v0h0Z" pointer-events="none"/><g><g class="mark-rule role-axis-tick" pointer-events="none"><line transform="translate(0,300)" x2="-5" y2="0" stroke="#888" stroke-width="1" opacity="1"/><line transform="translate(0,270)" x2="-5" y2="0" stroke="#888" stroke-width="1" opacity="1"/><line transform="translate(0,240)" x2="-5" y2="0" stroke="#888" stroke-width="1" opacity="1"/><line transform="translate(0,210)" x2="-5" y2="0" stroke="#888" stroke-width="1" opacity="1"/><line transform="translate(0,180)" x2="-5" y2="0" stroke="#888" stroke-width="1" opacity="1"/><line transform="translate(0,150)" x2="-5" y2="0" stroke="#888" stroke-width="1" opacity="1"/><line transform="translate(0,120)" x2="-5" y2="0" stroke="#888" stroke-width="1" opacity="1"/><line transform="translate(0,90)" x2="-5" y2="0" stroke="#888" stroke-width="1" opacity="1"/><line transform="translate(0,60)" x2="-5" y2="0" stroke="#888" stroke-width="1" opacity="1"/><line transform="translate(0,30)" x2="-5" y2="0" stroke="#888" stroke-width="1" opacity="1"/><line transform="translate(0,0)" x2="-5" y2="0" stroke="#888" stroke-width="1" opacity="1"/></g><g class="mark-text role-axis-label" pointer-events="none"><text text-anchor="end" transform="translate(-7,303)" font-family="sans-serif" font-size="10px" fill="#000" opacity="1">0.0</text><text text-anchor="end" transform="translate(-7,273)" font-family="sans-serif" font-size="10px" fill="#000" opacity="1">0.1</text><text text-anchor="end" transform="translate(-7,243)" font-family="sans-serif" font-size="10px" fill="#000" opacity="1">0.2</text><text text-anchor="end" transform="translate(-7,213)" font-family="sans-serif" font-size="10px" fill="#000" opacity="1">0.3</text><text text-anchor="end" transform="translate(-7,183)" font-family="sans-serif" font-size="10px" fill="#000" opacity="1">0.4</text><text text-anchor="end" transform="translate(-7,153)" font-family="sans-serif" font-size="10px" fill="#000" opacity="1">0.5</text><text text-anchor="end" transform="translate(-7,123)" font-family="sans-serif" font-size="10px" fill="#000" opacity="1">0.6</text><text text-anchor="end" transform="translate(-7,93.00000000000001)" font-family="sans-serif" font-size="10px" fill="#000" opacity="1">0.7</text><text text-anchor="end" transform="translate(-7,62.999999999999986)" font-family="sans-serif" font-size="10px" fill="#000" opacity="1">0.8</text><text text-anchor="end" transform="translate(-7,32.99999999999999)" font-family="sans-serif" font-size="10px" fill="#000" opacity="1">0.9</text><text text-anchor="end" transform="translate(-7,3)" font-family="sans-serif" font-size="10px" fill="#000" opacity="1">1.0</text></g><g class="mark-rule role-axis-domain" pointer-events="none"><line transform="translate(0,300)" x2="0" y2="-300" stroke="#888" stroke-width="1" opacity="1"/></g><g class="mark-text role-axis-title" pointer-events="none"><text text-anchor="middle" transform="translate(-26,150) rotate(-90) translate(0,-2)" font-family="sans-serif" font-size="11px" font-weight="bold" fill="#000" opacity="1">count</text></g></g><path class="foreground" aria-hidden="true" d="" pointer-events="none" display="none"/></g></g><g class="mark-group role-scope pathgroup" role="graphics-object" aria-roledescription="group mark container"><g transform="translate(0,0)"><path class="background" aria-hidden="true" d="M0,0h400v300h-400Z"/><g><g class="mark-area role-mark marks" role="graphics-object" aria-roledescription="area mark container"><path aria-label="lineage: B.1.1.7; order: 0; date: Dec 01, 2020; count: 0" role="graphics-symbol" aria-roledescription="area mark" d="M0,300L30.76923076923077,266.66666666666663L68.13186813186813,137.83783783783784L98.9010989010989,94.28571428571428L136.26373626373626,184.7222222222222L167.03296703296704,87.5912408759124L197.8021978021978,66.91176470588235L228.57142857142856,17.350746268656724L265.9340659340659,22.09302325581396L296.7032967032967,22.073578595317745L331.8681318681319,7.707509881422947L362.6373626373626,16.071428571428548L400,19.354838709677434L400,300L362.6373626373626,300L331.8681318681319,300L296.7032967032967,300L265.9340659340659,300L228.57142857142856,300L197.8021978021978,300L167.03296703296704,300L136.26373626373626,300L98.9010989010989,300L68.13186813186813,300L30.76923076923077,300L0,300Z" fill="#f58518"/></g></g><path class="foreground" aria-hidden="true" d="" display="none"/></g><g transform="translate(0,0)"><path class="background" aria-hidden="true" d="M0,0h400v300h-400Z"/><g><g class="mark-area role-mark marks" role="graphics-object" aria-roledescription="area mark container"><path aria-label="lineage: B.1.177; order: 1; date: Dec 01, 2020; count: 0.862068965517" role="graphics-symbol" aria-roledescription="area mark" d="M0,41.3793103448276L30.76923076923077,26.66666666666667L68.13186813186813,16.216216216216182L98.9010989010989,8.571428571428575L136.26373626373626,27.7777777777778L167.03296703296704,27.372262773722646L197.8021978021978,21.323529411764696L228.57142857142856,6.156716417910458L265.9340659340659,19.186046511627907L296.7032967032967,21.571906354515068L331.8681318681319,7.707509881422947L362.6373626373626,16.071428571428548L400,17.972350230414737L400,19.354838709677434L362.6373626373626,16.071428571428548L331.8681318681319,7.707509881422947L296.7032967032967,22.073578595317745L265.9340659340659,22.09302325581396L228.57142857142856,17.350746268656724L197.8021978021978,66.91176470588235L167.03296703296704,87.5912408759124L136.26373626373626,184.7222222222222L98.9010989010989,94.28571428571428L68.13186813186813,137.83783783783784L30.76923076923077,266.66666666666663L0,300Z" fill="#72b7b2"/></g></g><path class="foreground" aria-hidden="true" d="" display="none"/></g><g transform="translate(0,0)"><path class="background" aria-hidden="true" d="M0,0h400v300h-400Z"/><g><g class="mark-area role-mark marks" role="graphics-object" aria-roledescription="area mark container"><path aria-label="lineage: P.1; order: 2; date: Dec 01, 2020; count: 0" role="graphics-symbol" aria-roledescription="area mark" d="M0,41.3793103448276L30.76923076923077,26.66666666666667L68.13186813186813,16.216216216216182L98.9010989010989,8.571428571428575L136.26373626373626,27.7777777777778L167.03296703296704,27.372262773722646L197.8021978021978,21.323529411764696L228.57142857142856,5.037313432835811L265.9340659340659,8.720930232558155L296.7032967032967,8.026755852842804L331.8681318681319,5.335968379446676L362.6373626373626,8.766233766233745L400,15.207373271889402L400,17.972350230414737L362.6373626373626,16.071428571428548L331.8681318681319,7.707509881422947L296.7032967032967,21.571906354515068L265.9340659340659,19.186046511627907L228.57142857142856,6.156716417910458L197.8021978021978,21.323529411764696L167.03296703296704,27.372262773722646L136.26373626373626,27.7777777777778L98.9010989010989,8.571428571428575L68.13186813186813,16.216216216216182L30.76923076923077,26.66666666666667L0,41.3793103448276Z" fill="#9d755d"/></g></g><path class="foreground" aria-hidden="true" d="" display="none"/></g><g transform="translate(0,0)"><path class="background" aria-hidden="true" d="M0,0h400v300h-400Z"/><g><g class="mark-area role-mark marks" role="graphics-object" aria-roledescription="area mark container"><path aria-label="lineage: B.1; order: 3; date: Dec 01, 2020; count: 0" role="graphics-symbol" aria-roledescription="area mark" d="M0,41.3793103448276L30.76923076923077,26.66666666666667L68.13186813186813,16.216216216216182L98.9010989010989,0L136.26373626373626,23.611111111111114L167.03296703296704,14.233576642335766L197.8021978021978,18.38235294117647L228.57142857142856,5.037313432835811L265.9340659340659,8.720930232558155L296.7032967032967,8.026755852842804L331.8681318681319,5.335968379446676L362.6373626373626,8.766233766233745L400,15.207373271889402L400,15.207373271889402L362.6373626373626,8.766233766233745L331.8681318681319,5.335968379446676L296.7032967032967,8.026755852842804L265.9340659340659,8.720930232558155L228.57142857142856,5.037313432835811L197.8021978021978,21.323529411764696L167.03296703296704,27.372262773722646L136.26373626373626,27.7777777777778L98.9010989010989,8.571428571428575L68.13186813186813,16.216216216216182L30.76923076923077,26.66666666666667L0,41.3793103448276Z" fill="#4c78a8"/></g></g><path class="foreground" aria-hidden="true" d="" display="none"/></g><g transform="translate(0,0)"><path class="background" aria-hidden="true" d="M0,0h400v300h-400Z"/><g><g class="mark-area role-mark marks" role="graphics-object" aria-roledescription="area mark container"><path aria-label="lineage: B.1.221; order: 4; date: Dec 01, 2020; count: 0.0344827586207" role="graphics-symbol" aria-roledescription="area mark" d="M0,31.034482758620683L30.76923076923077,19.999999999999996L68.13186813186813,16.216216216216182L98.9010989010989,0L136.26373626373626,12.500000000000021L167.03296703296704,8.759124087591264L197.8021978021978,18.38235294117647L228.57142857142856,5.037313432835811L265.9340659340659,8.720930232558155L296.7032967032967,8.026755852842804L331.8681318681319,5.335968379446676L362.6373626373626,8.766233766233745L400,15.207373271889402L400,15.207373271889402L362.6373626373626,8.766233766233745L331.8681318681319,5.335968379446676L296.7032967032967,8.026755852842804L265.9340659340659,8.720930232558155L228.57142857142856,5.037313432835811L197.8021978021978,18.38235294117647L167.03296703296704,14.233576642335766L136.26373626373626,23.611111111111114L98.9010989010989,0L68.13186813186813,16.216216216216182L30.76923076923077,26.66666666666667L0,41.3793103448276Z" fill="#54a24b"/></g></g><path class="foreground" aria-hidden="true" d="" display="none"/></g><g transform="translate(0,0)"><path class="background" aria-hidden="true" d="M0,0h400v300h-400Z"/><g><g class="mark-area role-mark marks" role="graphics-object" aria-roledescription="area mark container"><path aria-label="lineage: B.1.160; order: 5; date: Dec 01, 2020; count: 0.0862068965517" role="graphics-symbol" aria-roledescription="area mark" d="M0,5.172413793103459L30.76923076923077,13.33333333333332L68.13186813186813,8.108108108108091L98.9010989010989,0L136.26373626373626,5.55555555555558L167.03296703296704,8.759124087591264L197.8021978021978,16.91176470588236L228.57142857142856,5.037313432835811L265.9340659340659,8.720930232558155L296.7032967032967,8.026755852842804L331.8681318681319,5.335968379446676L362.6373626373626,8.766233766233745L400,15.207373271889402L400,15.207373271889402L362.6373626373626,8.766233766233745L331.8681318681319,5.335968379446676L296.7032967032967,8.026755852842804L265.9340659340659,8.720930232558155L228.57142857142856,5.037313432835811L197.8021978021978,18.38235294117647L167.03296703296704,8.759124087591264L136.26373626373626,12.500000000000021L98.9010989010989,0L68.13186813186813,16.216216216216182L30.76923076923077,19.999999999999996L0,31.034482758620683Z" fill="#e45756"/></g></g><path class="foreground" aria-hidden="true" d="" display="none"/></g><g transform="translate(0,0)"><path class="background" aria-hidden="true" d="M0,0h400v300h-400Z"/><g><g class="mark-area role-mark marks" role="graphics-object" aria-roledescription="area mark container"><path aria-label="lineage: B.1.621; order: 6; date: Dec 01, 2020; count: 0" role="graphics-symbol" aria-roledescription="area mark" d="M0,5.172413793103459L30.76923076923077,13.33333333333332L68.13186813186813,8.108108108108091L98.9010989010989,0L136.26373626373626,5.55555555555558L167.03296703296704,8.759124087591264L197.8021978021978,16.91176470588236L228.57142857142856,5.037313432835811L265.9340659340659,8.720930232558155L296.7032967032967,7.525083612040129L331.8681318681319,4.7430830039525755L362.6373626373626,6.331168831168821L400,9.677419354838701L400,15.207373271889402L362.6373626373626,8.766233766233745L331.8681318681319,5.335968379446676L296.7032967032967,8.026755852842804L265.9340659340659,8.720930232558155L228.57142857142856,5.037313432835811L197.8021978021978,16.91176470588236L167.03296703296704,8.759124087591264L136.26373626373626,5.55555555555558L98.9010989010989,0L68.13186813186813,8.108108108108091L30.76923076923077,13.33333333333332L0,5.172413793103459Z" fill="#ff9da6"/></g></g><path class="foreground" aria-hidden="true" d="" display="none"/></g><g transform="translate(0,0)"><path class="background" aria-hidden="true" d="M0,0h400v300h-400Z"/><g><g class="mark-area role-mark marks" role="graphics-object" aria-roledescription="area mark container"><path aria-label="lineage: B.1.258; order: 7; date: Dec 01, 2020; count: 0" role="graphics-symbol" aria-roledescription="area mark" d="M0,5.172413793103459L30.76923076923077,13.33333333333332L68.13186813186813,8.108108108108091L98.9010989010989,0L136.26373626373626,4.166666666666686L167.03296703296704,8.759124087591264L197.8021978021978,10.29411764705882L228.57142857142856,4.47761194029852L265.9340659340659,8.720930232558155L296.7032967032967,7.525083612040129L331.8681318681319,4.7430830039525755L362.6373626373626,6.331168831168821L400,9.677419354838701L400,9.677419354838701L362.6373626373626,6.331168831168821L331.8681318681319,4.7430830039525755L296.7032967032967,7.525083612040129L265.9340659340659,8.720930232558155L228.57142857142856,5.037313432835811L197.8021978021978,16.91176470588236L167.03296703296704,8.759124087591264L136.26373626373626,5.55555555555558L98.9010989010989,0L68.13186813186813,8.108108108108091L30.76923076923077,13.33333333333332L0,5.172413793103459Z" fill="#eeca3b"/></g></g><path class="foreground" aria-hidden="true" d="" display="none"/></g><g transform="translate(0,0)"><path class="background" aria-hidden="true" d="M0,0h400v300h-400Z"/><g><g class="mark-area role-mark marks" role="graphics-object" aria-roledescription="area mark container"><path aria-label="lineage: B.1.351; order: 8; date: Dec 01, 2020; count: 0" role="graphics-symbol" aria-roledescription="area mark" d="M0,5.172413793103459L30.76923076923077,13.33333333333332L68.13186813186813,8.108108108108091L98.9010989010989,0L136.26373626373626,4.166666666666686L167.03296703296704,7.664233576642343L197.8021978021978,9.558823529411764L228.57142857142856,3.3582089552238736L265.9340659340659,8.720930232558155L296.7032967032967,7.0234113712374535L331.8681318681319,3.5573122529644396L362.6373626373626,4.383116883116855L400,9.677419354838701L400,9.677419354838701L362.6373626373626,6.331168831168821L331.8681318681319,4.7430830039525755L296.7032967032967,7.525083612040129L265.9340659340659,8.720930232558155L228.57142857142856,4.47761194029852L197.8021978021978,10.29411764705882L167.03296703296704,8.759124087591264L136.26373626373626,4.166666666666686L98.9010989010989,0L68.13186813186813,8.108108108108091L30.76923076923077,13.33333333333332L0,5.172413793103459Z" fill="#b279a2"/></g></g><path class="foreground" aria-hidden="true" d="" display="none"/></g><g transform="translate(0,0)"><path class="background" aria-hidden="true" d="M0,0h400v300h-400Z"/><g><g class="mark-area role-mark marks" role="graphics-object" aria-roledescription="area mark container"><path aria-label="lineage: others; order: 9; date: Dec 01, 2020; count: 0.0172413793103" role="graphics-symbol" aria-roledescription="area mark" d="M0,0L30.76923076923077,0L68.13186813186813,0L98.9010989010989,0L136.26373626373626,0L167.03296703296704,0L197.8021978021978,0L228.57142857142856,0L265.9340659340659,0L296.7032967032967,0L331.8681318681319,3.3306690738754696e-14L362.6373626373626,0L400,0L400,9.677419354838701L362.6373626373626,4.383116883116855L331.8681318681319,3.5573122529644396L296.7032967032967,7.0234113712374535L265.9340659340659,8.720930232558155L228.57142857142856,3.3582089552238736L197.8021978021978,9.558823529411764L167.03296703296704,7.664233576642343L136.26373626373626,4.166666666666686L98.9010989010989,0L68.13186813186813,8.108108108108091L30.76923076923077,13.33333333333332L0,5.172413793103459Z" fill="#bab0ac"/></g></g><path class="foreground" aria-hidden="true" d="" display="none"/></g></g><g class="mark-group role-legend" role="graphics-symbol" aria-roledescription="legend" aria-label="Symbol legend titled 'lineage' for fill color with 10 values: B.1, B.1.1.7, B.1.160, B.1.177, B.1.221, ending with others"><g transform="translate(418,0)"><path class="background" aria-hidden="true" d="M0,0h53v144h-53Z" pointer-events="none"/><g><g class="mark-group role-legend-entry"><g transform="translate(0,16)"><path class="background" aria-hidden="true" d="M0,0h0v0h0Z" pointer-events="none"/><g><g class="mark-group role-scope" role="graphics-object" aria-roledescription="group mark container"><g transform="translate(0,0)"><path class="background" aria-hidden="true" d="M0,0h53v11h-53Z" pointer-events="none" opacity="1"/><g><g class="mark-symbol role-legend-symbol" pointer-events="none"><path transform="translate(6,6)" d="M5,0A5,5,0,1,1,-5,0A5,5,0,1,1,5,0" fill="#4c78a8" stroke-width="1.5" opacity="1"/></g><g class="mark-text role-legend-label" pointer-events="none"><text text-anchor="start" transform="translate(16,9)" font-family="sans-serif" font-size="10px" fill="#000" opacity="1">B.1</text></g></g><path class="foreground" aria-hidden="true" d="" pointer-events="none" display="none"/></g><g transform="translate(0,13)"><path class="background" aria-hidden="true" d="M0,0h53v11h-53Z" pointer-events="none" opacity="1"/><g><g class="mark-symbol role-legend-symbol" pointer-events="none"><path transform="translate(6,6)" d="M5,0A5,5,0,1,1,-5,0A5,5,0,1,1,5,0" fill="#f58518" stroke-width="1.5" opacity="1"/></g><g class="mark-text role-legend-label" pointer-events="none"><text text-anchor="start" transform="translate(16,9)" font-family="sans-serif" font-size="10px" fill="#000" opacity="1">B.1.1.7</text></g></g><path class="foreground" aria-hidden="true" d="" pointer-events="none" display="none"/></g><g transform="translate(0,26)"><path class="background" aria-hidden="true" d="M0,0h53v11h-53Z" pointer-events="none" opacity="1"/><g><g class="mark-symbol role-legend-symbol" pointer-events="none"><path transform="translate(6,6)" d="M5,0A5,5,0,1,1,-5,0A5,5,0,1,1,5,0" fill="#e45756" stroke-width="1.5" opacity="1"/></g><g class="mark-text role-legend-label" pointer-events="none"><text text-anchor="start" transform="translate(16,9)" font-family="sans-serif" font-size="10px" fill="#000" opacity="1">B.1.160</text></g></g><path class="foreground" aria-hidden="true" d="" pointer-events="none" display="none"/></g><g transform="translate(0,39)"><path class="background" aria-hidden="true" d="M0,0h53v11h-53Z" pointer-events="none" opacity="1"/><g><g class="mark-symbol role-legend-symbol" pointer-events="none"><path transform="translate(6,6)" d="M5,0A5,5,0,1,1,-5,0A5,5,0,1,1,5,0" fill="#72b7b2" stroke-width="1.5" opacity="1"/></g><g class="mark-text role-legend-label" pointer-events="none"><text text-anchor="start" transform="translate(16,9)" font-family="sans-serif" font-size="10px" fill="#000" opacity="1">B.1.177</text></g></g><path class="foreground" aria-hidden="true" d="" pointer-events="none" display="none"/></g><g transform="translate(0,52)"><path class="background" aria-hidden="true" d="M0,0h53v11h-53Z" pointer-events="none" opacity="1"/><g><g class="mark-symbol role-legend-symbol" pointer-events="none"><path transform="translate(6,6)" d="M5,0A5,5,0,1,1,-5,0A5,5,0,1,1,5,0" fill="#54a24b" stroke-width="1.5" opacity="1"/></g><g class="mark-text role-legend-label" pointer-events="none"><text text-anchor="start" transform="translate(16,9)" font-family="sans-serif" font-size="10px" fill="#000" opacity="1">B.1.221</text></g></g><path class="foreground" aria-hidden="true" d="" pointer-events="none" display="none"/></g><g transform="translate(0,65)"><path class="background" aria-hidden="true" d="M0,0h53v11h-53Z" pointer-events="none" opacity="1"/><g><g class="mark-symbol role-legend-symbol" pointer-events="none"><path transform="translate(6,6)" d="M5,0A5,5,0,1,1,-5,0A5,5,0,1,1,5,0" fill="#eeca3b" stroke-width="1.5" opacity="1"/></g><g class="mark-text role-legend-label" pointer-events="none"><text text-anchor="start" transform="translate(16,9)" font-family="sans-serif" font-size="10px" fill="#000" opacity="1">B.1.258</text></g></g><path class="foreground" aria-hidden="true" d="" pointer-events="none" display="none"/></g><g transform="translate(0,78)"><path class="background" aria-hidden="true" d="M0,0h53v11h-53Z" pointer-events="none" opacity="1"/><g><g class="mark-symbol role-legend-symbol" pointer-events="none"><path transform="translate(6,6)" d="M5,0A5,5,0,1,1,-5,0A5,5,0,1,1,5,0" fill="#b279a2" stroke-width="1.5" opacity="1"/></g><g class="mark-text role-legend-label" pointer-events="none"><text text-anchor="start" transform="translate(16,9)" font-family="sans-serif" font-size="10px" fill="#000" opacity="1">B.1.351</text></g></g><path class="foreground" aria-hidden="true" d="" pointer-events="none" display="none"/></g><g transform="translate(0,91)"><path class="background" aria-hidden="true" d="M0,0h53v11h-53Z" pointer-events="none" opacity="1"/><g><g class="mark-symbol role-legend-symbol" pointer-events="none"><path transform="translate(6,6)" d="M5,0A5,5,0,1,1,-5,0A5,5,0,1,1,5,0" fill="#ff9da6" stroke-width="1.5" opacity="1"/></g><g class="mark-text role-legend-label" pointer-events="none"><text text-anchor="start" transform="translate(16,9)" font-family="sans-serif" font-size="10px" fill="#000" opacity="1">B.1.621</text></g></g><path class="foreground" aria-hidden="true" d="" pointer-events="none" display="none"/></g><g transform="translate(0,104)"><path class="background" aria-hidden="true" d="M0,0h53v11h-53Z" pointer-events="none" opacity="1"/><g><g class="mark-symbol role-legend-symbol" pointer-events="none"><path transform="translate(6,6)" d="M5,0A5,5,0,1,1,-5,0A5,5,0,1,1,5,0" fill="#9d755d" stroke-width="1.5" opacity="1"/></g><g class="mark-text role-legend-label" pointer-events="none"><text text-anchor="start" transform="translate(16,9)" font-family="sans-serif" font-size="10px" fill="#000" opacity="1">P.1</text></g></g><path class="foreground" aria-hidden="true" d="" pointer-events="none" display="none"/></g><g transform="translate(0,117)"><path class="background" aria-hidden="true" d="M0,0h53v11h-53Z" pointer-events="none" opacity="1"/><g><g class="mark-symbol role-legend-symbol" pointer-events="none"><path transform="translate(6,6)" d="M5,0A5,5,0,1,1,-5,0A5,5,0,1,1,5,0" fill="#bab0ac" stroke-width="1.5" opacity="1"/></g><g class="mark-text role-legend-label" pointer-events="none"><text text-anchor="start" transform="translate(16,9)" font-family="sans-serif" font-size="10px" fill="#000" opacity="1">others</text></g></g><path class="foreground" aria-hidden="true" d="" pointer-events="none" display="none"/></g></g></g><path class="foreground" aria-hidden="true" d="" pointer-events="none" display="none"/></g></g><g class="mark-text role-legend-title" pointer-events="none"><text text-anchor="start" transform="translate(0,9)" font-family="sans-serif" font-size="11px" font-weight="bold" fill="#000" opacity="1">lineage</text></g></g><path class="foreground" aria-hidden="true" d="" pointer-events="none" display="none"/></g></g><g class="mark-group role-title"><g transform="translate(200,-22)"><path class="background" aria-hidden="true" d="M0,0h0v0h0Z" pointer-events="none"/><g><g class="mark-text role-title-text" role="graphics-symbol" aria-roledescription="title" aria-label="Title text 'Andalucía'" pointer-events="none"><text text-anchor="middle" transform="translate(0,10)" font-family="sans-serif" font-size="13px" font-weight="bold" fill="#000" opacity="1">Andalucía</text></g></g><path class="foreground" aria-hidden="true" d="" pointer-events="none" display="none"/></g></g></g><path class="foreground" aria-hidden="true" d="" display="none"/></g></g></g></svg>