<svg xmlns="http://www.w3.org/2000/svg" xmlns:xlink="http://www.w3.org/1999/xlink" version="1.1" class="marks" width="518" height="364" viewBox="0 0 518 364"><rect width="518" height="364" fill="white"/><g fill="none" stroke-miterlimit="10" transform="translate(42,27)"><g class="mark-group role-frame root" role="graphics-object" aria-roledescription="group mark container"><g transform="translate(0,0)"><path class="background" aria-hidden="true" d="M0.5,0.5h400v300h-400Z" stroke="#ddd"/><g><g class="mark-group role-axis" aria-hidden="true"><g transform="translate(0.5,300.5)"><path class="background" aria-hidden="true" d="M0,0h0v0h0Z" pointer-events="none"/><g><g class="mark-rule role-axis-grid" pointer-events="none"><line transform="translate(6,-300)" x2="0" y2="300" stroke="#ddd" stroke-width="1" opacity="1"/><line transform="translate(27,-300)" x2="0" y2="300" stroke="#ddd" stroke-width="1" opacity="1"/><line transform="translate(48,-300)" x2="0" y2="300" stroke="#ddd" stroke-width="1" opacity="1"/><line transform="translate(69,-300)" x2="0" y2="300" stroke="#ddd" stroke-width="1" opacity="1"/><line transform="translate(89,-300)" x2="0" y2="300" stroke="#ddd" stroke-width="1" opacity="1"/><line transform="translate(110,-300)" x2="0" y2="300" stroke="#ddd" stroke-width="1" opacity="1"/><line transform="translate(131,-300)" x2="0" y2="300" stroke="#ddd" stroke-width="1" opacity="1"/><line transform="translate(152,-300)" x2="0" y2="300" stroke="#ddd" stroke-width="1" opacity="1"/><line transform="translate(173,-300)" x2="0" y2="300" stroke="#ddd" stroke-width="1" opacity="1"/><line transform="translate(194,-300)" x2="0" y2="300" stroke="#ddd" stroke-width="1" opacity="1"/><line transform="translate(215,-300)" x2="0" y2="300" stroke="#ddd" stroke-width="1" opacity="1"/><line transform="translate(236,-300)" x2="0" y2="300" stroke="#ddd" stroke-width="1" opacity="1"/><line transform="translate(257,-300)" x2="0" y2="300" stroke="#ddd" stroke-width="1" opacity="1"/><line transform="translate(277,-300)" x2="0" y2="300" stroke="#ddd" stroke-width="1" opacity="1"/><line transform="translate(298,-300)" x2="0" y2="300" stroke="#ddd" stroke-width="1" opacity="1"/><line transform="translate(319,-300)" x2="0" y2="300" stroke="#ddd" stroke-width="1" opacity="1"/><line transform="translate(340,-300)" x2="0" y2="300" stroke="#ddd" stroke-width="1" opacity="1"/><line transform="translate(361,-300)" x2="0" y2="300" stroke="#ddd" stroke-width="1" opacity="1"/><line transform="translate(382,-300)" x2="0" y2="300" stroke="#ddd" stroke-width="1" opacity="1"/></g></g><path class="foreground" aria-hidden="true" d="" pointer-events="none" display="none"/></g></g><g class="mark-group role-axis" aria-hidden="true"><g transform="translate(0.5,0.5)"><path class="background" aria-hidden="true" d="M0,0h0v0h0Z" pointer-events="none"/><g><g class="mark-rule role-axis-grid" pointer-events="none"><line transform="translate(0,300)" x2="400" y2="0" stroke="#ddd" stroke-width="1" opacity="1"/><line transform="translate(0,270)" x2="400" y2="0" stroke="#ddd" stroke-width="1" opacity="1"/><line transform="translate(0,240)" x2="400" y2="0" stroke="#ddd" stroke-width="1" opacity="1"/><line transform="translate(0,210)" x2="400" y2="0" stroke="#ddd" stroke-width="1" opacity="1"/><line transform="translate(0,180)" x2="400" y2="0" stroke="#ddd" stroke-width="1" opacity="1"/><line transform="translate(0,150)" x2="400" y2="0" stroke="#ddd" stroke-width="1" opacity="1"/><line transform="translate(0,120)" x2="400" y2="0" stroke="#ddd" stroke-width="1" opacity="1"/><line transform="translate(0,90)" x2="400" y2="0" stroke="#ddd" stroke-width="1" opacity="1"/><line transform="translate(0,60)" x2="400" y2="0" stroke="#ddd" stroke-width="1" opacity="1"/><line transform="translate(0,30)" x2="400" y2="0" stroke="#ddd" stroke-width="1" opacity="1"/><line transform="translate(0,0)" x2="400" y2="0" stroke="#ddd" stroke-width="1" opacity="1"/></g></g><path class="foreground" aria-hidden="true" d="" pointer-events="none" display="none"/></g></g><g class="mark-group role-axis" role="graphics-symbol" aria-roledescription="axis" aria-label="X-axis titled 'date' for a time scale with values from Friday, 01 January 2021, 1:00:00 AM to Saturday, 15 May 2021, 2:00:00 AM"><g transform="translate(0.5,300.5)"><path class="background" aria-hidden="true" d="M0,0h0v0h0Z" pointer-events="none"/><g><g class="mark-rule role-axis-tick" pointer-events="none"><line transform="translate(6,0)" x2="0" y2="5" stroke="#888" stroke-width="1" opacity="1"/><line transform="translate(27,0)" x2="0" y2="5" stroke="#888" stroke-width="1" opacity="1"/><line transform="translate(48,0)" x2="0" y2="5" stroke="#888" stroke-width="1" opacity="1"/><line transform="translate(69,0)" x2="0" y2="5" stroke="#888" stroke-width="1" opacity="1"/><line transform="translate(89,0)" x2="0" y2="5" stroke="#888" stroke-width="1" opacity="1"/><line transform="translate(110,0)" x2="0" y2="5" stroke="#888" stroke-width="1" opacity="1"/><line transform="translate(131,0)" x2="0" y2="5" stroke="#888" stroke-width="1" opacity="1"/><line transform="translate(152,0)" x2="0" y2="5" stroke="#888" stroke-width="1" opacity="1"/><line transform="translate(173,0)" x2="0" y2="5" stroke="#888" stroke-width="1" opacity="1"/><line transform="translate(194,0)" x2="0" y2="5" stroke="#888" stroke-width="1" opacity="1"/><line transform="translate(215,0)" x2="0" y2="5" stroke="#888" stroke-width="1" opacity="1"/><line transform="translate(236,0)" x2="0" y2="5" stroke="#888" stroke-width="1" opacity="1"/><line transform="translate(257,0)" x2="0" y2="5" stroke="#888" stroke-width="1" opacity="1"/><line transform="translate(277,0)" x2="0" y2="5" stroke="#888" stroke-width="1" opacity="1"/><line transform="translate(298,0)" x2="0" y2="5" stroke="#888" stroke-width="1" opacity="1"/><line transform="translate(319,0)" x2="0" y2="5" stroke="#888" stroke-width="1" opacity="1"/><line transform="translate(340,0)" x2="0" y2="5" stroke="#888" stroke-width="1" opacity="1"/><line transform="translate(361,0)" x2="0" y2="5" stroke="#888" stroke-width="1" opacity="1"/><line transform="translate(382,0)" x2="0" y2="5" stroke="#888" stroke-width="1" opacity="1"/></g><g class="mark-text role-axis-label" pointer-events="none"><text text-anchor="middle" transform="translate(5.845771144278607,15)" font-family="sans-serif" font-size="10px" fill="#000" opacity="1">Jan 03</text><text text-anchor="middle" transform="translate(26.741293532338307,15)" font-family="sans-serif" font-size="10px" fill="#000" opacity="0">Jan 10</text><text text-anchor="middle" transform="translate(47.636815920398014,15)" font-family="sans-serif" font-size="10px" fill="#000" opacity="1">Jan 17</text><text text-anchor="middle" transform="translate(68.53233830845771,15)" font-family="sans-serif" font-size="10px" fill="#000" opacity="0">Jan 24</text><text text-anchor="middle" transform="translate(89.42786069651741,15)" font-family="sans-serif" font-size="10px" fill="#000" opacity="1">Jan 31</text><text text-anchor="middle" transform="translate(110.32338308457712,15)" font-family="sans-serif" font-size="10px" fill="#000" opacity="0">Feb 07</text><text text-anchor="middle" transform="translate(131.2189054726368,15)" font-family="sans-serif" font-size="10px" fill="#000" opacity="1">Feb 14</text><text text-anchor="middle" transform="translate(152.1144278606965,15)" font-family="sans-serif" font-size="10px" fill="#000" opacity="0">Feb 21</text><text text-anchor="middle" transform="translate(173.00995024875624,15)" font-family="sans-serif" font-size="10px" fill="#000" opacity="1">Feb 28</text><text text-anchor="middle" transform="translate(193.90547263681592,15)" font-family="sans-serif" font-size="10px" fill="#000" opacity="0">Mar 07</text><text text-anchor="middle" transform="translate(214.80099502487562,15)" font-family="sans-serif" font-size="10px" fill="#000" opacity="1">Mar 14</text><text text-anchor="middle" transform="translate(235.69651741293535,15)" font-family="sans-serif" font-size="10px" fill="#000" opacity="0">Mar 21</text><text text-anchor="middle" transform="translate(256.592039800995,15)" font-family="sans-serif" font-size="10px" fill="#000" opacity="1">Mar 28</text><text text-anchor="middle" transform="translate(277.363184079602,15)" font-family="sans-serif" font-size="10px" fill="#000" opacity="0">Apr 04</text><text text-anchor="middle" transform="translate(298.2587064676617,15)" font-family="sans-serif" font-size="10px" fill="#000" opacity="1">Apr 11</text><text text-anchor="middle" transform="translate(319.1542288557214,15)" font-family="sans-serif" font-size="10px" fill="#000" opacity="0">Apr 18</text><text text-anchor="middle" transform="translate(340.0497512437811,15)" font-family="sans-serif" font-size="10px" fill="#000" opacity="1">Apr 25</text><text text-anchor="middle" transform="translate(360.9452736318408,15)" font-family="sans-serif" font-size="10px" fill="#000" opacity="0">May 02</text><text text-anchor="middle" transform="translate(381.8407960199005,15)" font-family="sans-serif" font-size="10px" fill="#000" opacity="1">May 09</text></g><g class="mark-rule role-axis-domain" pointer-events="none"><line transform="translate(0,0)" x2="400" y2="0" stroke="#888" stroke-width="1" opacity="1"/></g><g class="mark-text role-axis-title" pointer-events="none"><text text-anchor="middle" transform="translate(200,30)" font-family="sans-serif" font-size="11px" font-weight="bold" fill="#000" opacity="1">date</text></g></g><path class="foreground" aria-hidden="true" d="" pointer-events="none" display="none"/></g></g><g class="mark-group role-axis" role="graphics-symbol" aria-roledescription="axis" aria-label="Y-axis titled 'count' for a linear scale with values from 0.0 to 1.0"><g transform="translate(0.5,0.5)"><path class="background" aria-hidden="true" d="M0,0h0v0h0Z" pointer-events="none"/><g><g class="mark-rule role-axis-tick" pointer-events="none"><line transform="translate(0,300)" x2="-5" y2="0" stroke="#888" stroke-width="1" opacity="1"/><line transform="translate(0,270)" x2="-5" y2="0" stroke="#888" stroke-width="1" opacity="1"/><line transform="translate(0,240)" x2="-5" y2="0" stroke="#888" stroke-width="1" opacity="1"/><line transform="translate(0,210)" x2="-5" y2="0" stroke="#888" stroke-width="1" opacity="1"/><line transform="translate(0,180)" x2="-5" y2="0" stroke="#888" stroke-width="1" opacity="1"/><line transform="translate(0,150)" x2="-5" y2="0" stroke="#888" stroke-width="1" opacity="1"/><line transform="translate(0,120)" x2="-5" y2="0" stroke="#888" stroke-width="1" opacity="1"/><line transform="translate(0,90)" x2="-5" y2="0" stroke="#888" stroke-width="1" opacity="1"/><line transform="translate(0,60)" x2="-5" y2="0" stroke="#888" stroke-width="1" opacity="1"/><line transform="translate(0,30)" x2="-5" y2="0" stroke="#888" stroke-width="1" opacity="1"/><line transform="translate(0,0)" x2="-5" y2="0" stroke="#888" stroke-width="1" opacity="1"/></g><g class="mark-text role-axis-label" pointer-events="none"><text text-anchor="end" transform="translate(-7,303)" font-family="sans-serif" font-size="10px" fill="#000" opacity="1">0.0</text><text text-anchor="end" transform="translate(-7,273)" font-family="sans-serif" font-size="10px" fill="#000" opacity="1">0.1</text><text text-anchor="end" transform="translate(-7,243)" font-family="sans-serif" font-size="10px" fill="#000" opacity="1">0.2</text><text text-anchor="end" transform="translate(-7,213)" font-family="sans-serif" font-size="10px" fill="#000" opacity="1">0.3</text><text text-anchor="end" transform="translate(-7,183)" font-family="sans-serif" font-size="10px" fill="#000" opacity="1">0.4</text><text text-anchor="end" transform="translate(-7,153)" font-family="sans-serif" font-size="10px" fill="#000" opacity="1">0.5</text><text text-anchor="end" transform="translate(-7,123)" font-family="sans-serif" font-size="10px" fill="#000" opacity="1">0.6</text><text text-anchor="end" transform="translate(-7,93.00000000000001)" font-family="sans-serif" font-size="10px" fill="#000" opacity="1">0.7</text><text text-anchor="end" transform="translate(-7,62.999999999999986)" font-family="sans-serif" font-size="10px" fill="#000" opacity="1">0.8</text><text text-anchor="end" transform="translate(-7,32.99999999999999)" font-family="sans-serif" font-size="10px" fill="#000" opacity="1">0.9</text><text text-anchor="end" transform="translate(-7,3)" font-family="sans-serif" font-size="10px" fill="#000" opacity="1">1.0</text></g><g class="mark-rule role-axis-domain" pointer-events="none"><line transform="translate(0,300)" x2="0" y2="-300" stroke="#888" stroke-width="1" opacity="1"/></g><g class="mark-text role-axis-title" pointer-events="none"><text text-anchor="middle" transform="translate(-26,150) rotate(-90) translate(0,-2)" font-family="sans-serif" font-size="11px" font-weight="bold" fill="#000" opacity="1">count</text></g></g><path class="foreground" aria-hidden="true" d="" pointer-events="none" display="none"/></g></g><g class="mark-group role-scope pathgroup" role="graphics-object" aria-roledescription="group mark container"><g transform="translate(0,0)"><path class="background" aria-hidden="true" d="M0,0h400v300h-400Z"/><g><g class="mark-area role-mark marks" role="graphics-object" aria-roledescription="area mark container"><path aria-label="lineage: B.1.1.7; order: 0; date: Jan 01, 2021; count: 0.6" role="graphics-symbol" aria-roledescription="area mark" d="M0,119.99999999999997L41.7910447761194,150L92.53731343283582,233.33333333333334L134.32835820895522,105.88235294117646L176.11940298507463,89.18918918918918L217.91044776119404,27.27272727272725L268.65671641791045,52.17391304347826L310.44776119402985,23.4375L358.2089552238806,20.93023255813954L400,19.354838709677434L400,300L358.2089552238806,300L310.44776119402985,300L268.65671641791045,300L217.91044776119404,300L176.11940298507463,300L134.32835820895522,300L92.53731343283582,300L41.7910447761194,300L0,300Z" fill="#f58518"/></g></g><path class="foreground" aria-hidden="true" d="" display="none"/></g><g transform="translate(0,0)"><path class="background" aria-hidden="true" d="M0,0h400v300h-400Z"/><g><g class="mark-area role-mark marks" role="graphics-object" aria-roledescription="area mark container"><path aria-label="lineage: B.1.177; order: 1; date: Jan 01, 2021; count: 0.2" role="graphics-symbol" aria-roledescription="area mark" d="M0,59.999999999999986L41.7910447761194,0L92.53731343283582,33.33333333333335L134.32835820895522,17.647058823529417L176.11940298507463,48.64864864864862L217.91044776119404,9.090909090909083L268.65671641791045,52.17391304347826L310.44776119402985,23.4375L358.2089552238806,20.93023255813954L400,19.354838709677434L400,19.354838709677434L358.2089552238806,20.93023255813954L310.44776119402985,23.4375L268.65671641791045,52.17391304347826L217.91044776119404,27.27272727272725L176.11940298507463,89.18918918918918L134.32835820895522,105.88235294117646L92.53731343283582,233.33333333333334L41.7910447761194,150L0,119.99999999999997Z" fill="#72b7b2"/></g></g><path class="foreground" aria-hidden="true" d="" display="none"/></g><g transform="translate(0,0)"><path class="background" aria-hidden="true" d="M0,0h400v300h-400Z"/><g><g class="mark-area role-mark marks" role="graphics-object" aria-roledescription="area mark container"><path aria-label="lineage: P.1; order: 2; date: Jan 01, 2021; count: 0" role="graphics-symbol" aria-roledescription="area mark" d="M0,59.999999999999986L41.7910447761194,0L92.53731343283582,33.33333333333335L134.32835820895522,17.647058823529417L176.11940298507463,48.64864864864862L217.91044776119404,9.090909090909083L268.65671641791045,39.1304347826087L310.44776119402985,23.4375L358.2089552238806,10.465116279069786L400,14.516129032258085L400,19.354838709677434L358.2089552238806,20.93023255813954L310.44776119402985,23.4375L268.65671641791045,52.17391304347826L217.91044776119404,9.090909090909083L176.11940298507463,48.64864864864862L134.32835820895522,17.647058823529417L92.53731343283582,33.33333333333335L41.7910447761194,0L0,59.999999999999986Z" fill="#9d755d"/></g></g><path class="foreground" aria-hidden="true" d="" display="none"/></g><g transform="translate(0,0)"><path class="background" aria-hidden="true" d="M0,0h400v300h-400Z"/><g><g class="mark-area role-mark marks" role="graphics-object" aria-roledescription="area mark container"><path aria-label="lineage: B.1; order: 3; date: Jan 01, 2021; count: 0" role="graphics-symbol" aria-roledescription="area mark" d="M0,59.999999999999986L41.7910447761194,0L92.53731343283582,33.33333333333335L134.32835820895522,0L176.11940298507463,48.64864864864862L217.91044776119404,9.090909090909083L268.65671641791045,39.1304347826087L310.44776119402985,23.4375L358.2089552238806,10.465116279069786L400,14.516129032258085L400,14.516129032258085L358.2089552238806,10.465116279069786L310.44776119402985,23.4375L268.65671641791045,39.1304347826087L217.91044776119404,9.090909090909083L176.11940298507463,48.64864864864862L134.32835820895522,17.647058823529417L92.53731343283582,33.33333333333335L41.7910447761194,0L0,59.999999999999986Z" fill="#4c78a8"/></g></g><path class="foreground" aria-hidden="true" d="" display="none"/></g><g transform="translate(0,0)"><path class="background" aria-hidden="true" d="M0,0h400v300h-400Z"/><g><g class="mark-area role-mark marks" role="graphics-object" aria-roledescription="area mark container"><path aria-label="lineage: B.1.221; order: 4; date: Jan 01, 2021; count: 0" role="graphics-symbol" aria-roledescription="area mark" d="M0,59.999999999999986L41.7910447761194,0L92.53731343283582,33.33333333333335L134.32835820895522,0L176.11940298507463,48.64864864864862L217.91044776119404,9.090909090909083L268.65671641791045,39.1304347826087L310.44776119402985,23.4375L358.2089552238806,10.465116279069786L400,14.516129032258085L400,14.516129032258085L358.2089552238806,10.465116279069786L310.44776119402985,23.4375L268.65671641791045,39.1304347826087L217.91044776119404,9.090909090909083L176.11940298507463,48.64864864864862L134.32835820895522,0L92.53731343283582,33.33333333333335L41.7910447761194,0L0,59.999999999999986Z" fill="#54a24b"/></g></g><path class="foreground" aria-hidden="true" d="" display="none"/></g><g transform="translate(0,0)"><path class="background" aria-hidden="true" d="M0,0h400v300h-400Z"/><g><g class="mark-area role-mark marks" role="graphics-object" aria-roledescription="area mark container"><path aria-label="lineage: B.1.160; order: 5; date: Jan 01, 2021; count: 0" role="graphics-symbol" aria-roledescription="area mark" d="M0,59.999999999999986L41.7910447761194,0L92.53731343283582,33.33333333333335L134.32835820895522,0L176.11940298507463,48.64864864864862L217.91044776119404,9.090909090909083L268.65671641791045,39.1304347826087L310.44776119402985,23.4375L358.2089552238806,10.465116279069786L400,14.516129032258085L400,14.516129032258085L358.2089552238806,10.465116279069786L310.44776119402985,23.4375L268.65671641791045,39.1304347826087L217.91044776119404,9.090909090909083L176.11940298507463,48.64864864864862L134.32835820895522,0L92.53731343283582,33.33333333333335L41.7910447761194,0L0,59.999999999999986Z" fill="#e45756"/></g></g><path class="foreground" aria-hidden="true" d="" display="none"/></g><g transform="translate(0,0)"><path class="background" aria-hidden="true" d="M0,0h400v300h-400Z"/><g><g class="mark-area role-mark marks" role="graphics-object" aria-roledescription="area mark container"><path aria-label="lineage: B.1.621; order: 6; date: Jan 01, 2021; count: 0" role="graphics-symbol" aria-roledescription="area mark" d="M0,59.999999999999986L41.7910447761194,0L92.53731343283582,33.33333333333335L134.32835820895522,0L176.11940298507463,48.64864864864862L217.91044776119404,9.090909090909083L268.65671641791045,39.1304347826087L310.44776119402985,23.4375L358.2089552238806,10.465116279069786L400,14.516129032258085L400,14.516129032258085L358.2089552238806,10.465116279069786L310.44776119402985,23.4375L268.65671641791045,39.1304347826087L217.91044776119404,9.090909090909083L176.11940298507463,48.64864864864862L134.32835820895522,0L92.53731343283582,33.33333333333335L41.7910447761194,0L0,59.999999999999986Z" fill="#ff9da6"/></g></g><path class="foreground" aria-hidden="true" d="" display="none"/></g><g transform="translate(0,0)"><path class="background" aria-hidden="true" d="M0,0h400v300h-400Z"/><g><g class="mark-area role-mark marks" role="graphics-object" aria-roledescription="area mark container"><path aria-label="lineage: B.1.258; order: 7; date: Jan 01, 2021; count: 0" role="graphics-symbol" aria-roledescription="area mark" d="M0,59.999999999999986L41.7910447761194,0L92.53731343283582,33.33333333333335L134.32835820895522,0L176.11940298507463,32.432432432432435L217.91044776119404,9.090909090909083L268.65671641791045,39.1304347826087L310.44776119402985,23.4375L358.2089552238806,10.465116279069786L400,14.516129032258085L400,14.516129032258085L358.2089552238806,10.465116279069786L310.44776119402985,23.4375L268.65671641791045,39.1304347826087L217.91044776119404,9.090909090909083L176.11940298507463,48.64864864864862L134.32835820895522,0L92.53731343283582,33.33333333333335L41.7910447761194,0L0,59.999999999999986Z" fill="#eeca3b"/></g></g><path class="foreground" aria-hidden="true" d="" display="none"/></g><g transform="translate(0,0)"><path class="background" aria-hidden="true" d="M0,0h400v300h-400Z"/><g><g class="mark-area role-mark marks" role="graphics-object" aria-roledescription="area mark container"><path aria-label="lineage: B.1.351; order: 8; date: Jan 01, 2021; count: 0" role="graphics-symbol" aria-roledescription="area mark" d="M0,59.999999999999986L41.7910447761194,0L92.53731343283582,33.33333333333335L134.32835820895522,0L176.11940298507463,32.432432432432435L217.91044776119404,9.090909090909083L268.65671641791045,39.1304347826087L310.44776119402985,23.4375L358.2089552238806,10.465116279069786L400,9.677419354838701L400,14.516129032258085L358.2089552238806,10.465116279069786L310.44776119402985,23.4375L268.65671641791045,39.1304347826087L217.91044776119404,9.090909090909083L176.11940298507463,32.432432432432435L134.32835820895522,0L92.53731343283582,33.33333333333335L41.7910447761194,0L0,59.999999999999986Z" fill="#b279a2"/></g></g><path class="foreground" aria-hidden="true" d="" display="none"/></g><g transform="translate(0,0)"><path class="background" aria-hidden="true" d="M0,0h400v300h-400Z"/><g><g class="mark-area role-mark marks" role="graphics-object" aria-roledescription="area mark container"><path aria-label="lineage: others; order: 9; date: Jan 01, 2021; count: 0.2" role="graphics-symbol" aria-roledescription="area mark" d="M0,0L41.7910447761194,0L92.53731343283582,0L134.32835820895522,0L176.11940298507463,0L217.91044776119404,0L268.65671641791045,0L310.44776119402985,0L358.2089552238806,0L400,0L400,9.677419354838701L358.2089552238806,10.465116279069786L310.44776119402985,23.4375L268.65671641791045,39.1304347826087L217.91044776119404,9.090909090909083L176.11940298507463,32.432432432432435L134.32835820895522,0L92.53731343283582,33.33333333333335L41.7910447761194,0L0,59.999999999999986Z" fill="#bab0ac"/></g></g><path class="foreground" aria-hidden="true" d="" display="none"/></g></g><g class="mark-group role-legend" role="graphics-symbol" aria-roledescription="legend" aria-label="Symbol legend titled 'lineage' for fill color with 10 values: B.1, B.1.1.7, B.1.160, B.1.177, B.1.221, ending with others"><g transform="translate(418,0)"><path class="background" aria-hidden="true" d="M0,0h53v144h-53Z" pointer-events="none"/><g><g class="mark-group role-legend-entry"><g transform="translate(0,16)"><path class="background" aria-hidden="true" d="M0,0h0v0h0Z" pointer-events="none"/><g><g class="mark-group role-scope" role="graphics-object" aria-roledescription="group mark container"><g transform="translate(0,0)"><path class="background" aria-hidden="true" d="M0,0h53v11h-53Z" pointer-events="none" opacity="1"/><g><g class="mark-symbol role-legend-symbol" pointer-events="none"><path transform="translate(6,6)" d="M5,0A5,5,0,1,1,-5,0A5,5,0,1,1,5,0" fill="#4c78a8" stroke-width="1.5" opacity="1"/></g><g class="mark-text role-legend-label" pointer-events="none"><text text-anchor="start" transform="translate(16,9)" font-family="sans-serif" font-size="10px" fill="#000" opacity="1">B.1</text></g></g><path class="foreground" aria-hidden="true" d="" pointer-events="none" display="none"/></g><g transform="translate(0,13)"><path class="background" aria-hidden="true" d="M0,0h53v11h-53Z" pointer-events="none" opacity="1"/><g><g class="mark-symbol role-legend-symbol" pointer-events="none"><path transform="translate(6,6)" d="M5,0A5,5,0,1,1,-5,0A5,5,0,1,1,5,0" fill="#f58518" stroke-width="1.5" opacity="1"/></g><g class="mark-text role-legend-label" pointer-events="none"><text text-anchor="start" transform="translate(16,9)" font-family="sans-serif" font-size="10px" fill="#000" opacity="1">B.1.1.7</text></g></g><path class="foreground" aria-hidden="true" d="" pointer-events="none" display="none"/></g><g transform="translate(0,26)"><path class="background" aria-hidden="true" d="M0,0h53v11h-53Z" pointer-events="none" opacity="1"/><g><g class="mark-symbol role-legend-symbol" pointer-events="none"><path transform="translate(6,6)" d="M5,0A5,5,0,1,1,-5,0A5,5,0,1,1,5,0" fill="#e45756" stroke-width="1.5" opacity="1"/></g><g class="mark-text role-legend-label" pointer-events="none"><text text-anchor="start" transform="translate(16,9)" font-family="sans-serif" font-size="10px" fill="#000" opacity="1">B.1.160</text></g></g><path class="foreground" aria-hidden="true" d="" pointer-events="none" display="none"/></g><g transform="translate(0,39)"><path class="background" aria-hidden="true" d="M0,0h53v11h-53Z" pointer-events="none" opacity="1"/><g><g class="mark-symbol role-legend-symbol" pointer-events="none"><path transform="translate(6,6)" d="M5,0A5,5,0,1,1,-5,0A5,5,0,1,1,5,0" fill="#72b7b2" stroke-width="1.5" opacity="1"/></g><g class="mark-text role-legend-label" pointer-events="none"><text text-anchor="start" transform="translate(16,9)" font-family="sans-serif" font-size="10px" fill="#000" opacity="1">B.1.177</text></g></g><path class="foreground" aria-hidden="true" d="" pointer-events="none" display="none"/></g><g transform="translate(0,52)"><path class="background" aria-hidden="true" d="M0,0h53v11h-53Z" pointer-events="none" opacity="1"/><g><g class="mark-symbol role-legend-symbol" pointer-events="none"><path transform="translate(6,6)" d="M5,0A5,5,0,1,1,-5,0A5,5,0,1,1,5,0" fill="#54a24b" stroke-width="1.5" opacity="1"/></g><g class="mark-text role-legend-label" pointer-events="none"><text text-anchor="start" transform="translate(16,9)" font-family="sans-serif" font-size="10px" fill="#000" opacity="1">B.1.221</text></g></g><path class="foreground" aria-hidden="true" d="" pointer-events="none" display="none"/></g><g transform="translate(0,65)"><path class="background" aria-hidden="true" d="M0,0h53v11h-53Z" pointer-events="none" opacity="1"/><g><g class="mark-symbol role-legend-symbol" pointer-events="none"><path transform="translate(6,6)" d="M5,0A5,5,0,1,1,-5,0A5,5,0,1,1,5,0" fill="#eeca3b" stroke-width="1.5" opacity="1"/></g><g class="mark-text role-legend-label" pointer-events="none"><text text-anchor="start" transform="translate(16,9)" font-family="sans-serif" font-size="10px" fill="#000" opacity="1">B.1.258</text></g></g><path class="foreground" aria-hidden="true" d="" pointer-events="none" display="none"/></g><g transform="translate(0,78)"><path class="background" aria-hidden="true" d="M0,0h53v11h-53Z" pointer-events="none" opacity="1"/><g><g class="mark-symbol role-legend-symbol" pointer-events="none"><path transform="translate(6,6)" d="M5,0A5,5,0,1,1,-5,0A5,5,0,1,1,5,0" fill="#b279a2" stroke-width="1.5" opacity="1"/></g><g class="mark-text role-legend-label" pointer-events="none"><text text-anchor="start" transform="translate(16,9)" font-family="sans-serif" font-size="10px" fill="#000" opacity="1">B.1.351</text></g></g><path class="foreground" aria-hidden="true" d="" pointer-events="none" display="none"/></g><g transform="translate(0,91)"><path class="background" aria-hidden="true" d="M0,0h53v11h-53Z" pointer-events="none" opacity="1"/><g><g class="mark-symbol role-legend-symbol" pointer-events="none"><path transform="translate(6,6)" d="M5,0A5,5,0,1,1,-5,0A5,5,0,1,1,5,0" fill="#ff9da6" stroke-width="1.5" opacity="1"/></g><g class="mark-text role-legend-label" pointer-events="none"><text text-anchor="start" transform="translate(16,9)" font-family="sans-serif" font-size="10px" fill="#000" opacity="1">B.1.621</text></g></g><path class="foreground" aria-hidden="true" d="" pointer-events="none" display="none"/></g><g transform="translate(0,104)"><path class="background" aria-hidden="true" d="M0,0h53v11h-53Z" pointer-events="none" opacity="1"/><g><g class="mark-symbol role-legend-symbol" pointer-events="none"><path transform="translate(6,6)" d="M5,0A5,5,0,1,1,-5,0A5,5,0,1,1,5,0" fill="#9d755d" stroke-width="1.5" opacity="1"/></g><g class="mark-text role-legend-label" pointer-events="none"><text text-anchor="start" transform="translate(16,9)" font-family="sans-serif" font-size="10px" fill="#000" opacity="1">P.1</text></g></g><path class="foreground" aria-hidden="true" d="" pointer-events="none" display="none"/></g><g transform="translate(0,117)"><path class="background" aria-hidden="true" d="M0,0h53v11h-53Z" pointer-events="none" opacity="1"/><g><g class="mark-symbol role-legend-symbol" pointer-events="none"><path transform="translate(6,6)" d="M5,0A5,5,0,1,1,-5,0A5,5,0,1,1,5,0" fill="#bab0ac" stroke-width="1.5" opacity="1"/></g><g class="mark-text role-legend-label" pointer-events="none"><text text-anchor="start" transform="translate(16,9)" font-family="sans-serif" font-size="10px" fill="#000" opacity="1">others</text></g></g><path class="foreground" aria-hidden="true" d="" pointer-events="none" display="none"/></g></g></g><path class="foreground" aria-hidden="true" d="" pointer-events="none" display="none"/></g></g><g class="mark-text role-legend-title" pointer-events="none"><text text-anchor="start" transform="translate(0,9)" font-family="sans-serif" font-size="11px" font-weight="bold" fill="#000" opacity="1">lineage</text></g></g><path class="foreground" aria-hidden="true" d="" pointer-events="none" display="none"/></g></g><g class="mark-group role-title"><g transform="translate(200,-22)"><path class="background" aria-hidden="true" d="M0,0h0v0h0Z" pointer-events="none"/><g><g class="mark-text role-title-text" role="graphics-symbol" aria-roledescription="title" aria-label="Title text 'Málaga'" pointer-events="none"><text text-anchor="middle" transform="translate(0,10)" font-family="sans-serif" font-size="13px" font-weight="bold" fill="#000" opacity="1">Málaga</text></g></g><path class="foreground" aria-hidden="true" d="" pointer-events="none" display="none"/></g></g></g><path class="foreground" aria-hidden="true" d="" display="none"/></g></g></g></svg>